<mxfile host="app.diagrams.net" modified="2021-03-10T19:49:50.750Z" agent="5.0 (Windows NT 10.0; Win64; x64) AppleWebKit/537.36 (KHTML, like Gecko) Chrome/89.0.4389.82 Safari/537.36" etag="_v50uA3ODaufopRcamm4" version="14.4.4" type="github">
  <diagram id="TF8GFAJndexXgGTdl94l" name="Page-1">
    <mxGraphModel dx="534" dy="508" grid="1" gridSize="10" guides="1" tooltips="1" connect="1" arrows="1" fold="1" page="1" pageScale="1" pageWidth="1654" pageHeight="2336" math="0" shadow="0">
      <root>
        <mxCell id="0" />
        <mxCell id="1" parent="0" />
        <mxCell id="EpjN3oS9ddipyR-FSRtz-1" value="" style="shape=table;html=1;whiteSpace=wrap;startSize=0;container=1;collapsible=0;childLayout=tableLayout;" vertex="1" parent="1">
          <mxGeometry x="195" y="100" width="444" height="40" as="geometry" />
        </mxCell>
        <mxCell id="EpjN3oS9ddipyR-FSRtz-2" value="" style="shape=partialRectangle;html=1;whiteSpace=wrap;collapsible=0;dropTarget=0;pointerEvents=0;fillColor=none;top=0;left=0;bottom=0;right=0;points=[[0,0.5],[1,0.5]];portConstraint=eastwest;" vertex="1" parent="EpjN3oS9ddipyR-FSRtz-1">
          <mxGeometry width="444" height="40" as="geometry" />
        </mxCell>
        <mxCell id="EpjN3oS9ddipyR-FSRtz-3" value="&lt;u&gt;ID&lt;/u&gt;" style="shape=partialRectangle;html=1;whiteSpace=wrap;connectable=0;fillColor=none;top=0;left=0;bottom=0;right=0;overflow=hidden;" vertex="1" parent="EpjN3oS9ddipyR-FSRtz-2">
          <mxGeometry width="78" height="40" as="geometry" />
        </mxCell>
        <mxCell id="EpjN3oS9ddipyR-FSRtz-4" value="name" style="shape=partialRectangle;html=1;whiteSpace=wrap;connectable=0;fillColor=none;top=0;left=0;bottom=0;right=0;overflow=hidden;" vertex="1" parent="EpjN3oS9ddipyR-FSRtz-2">
          <mxGeometry x="78" width="79" height="40" as="geometry" />
        </mxCell>
        <mxCell id="EpjN3oS9ddipyR-FSRtz-18" value="email" style="shape=partialRectangle;html=1;whiteSpace=wrap;connectable=0;fillColor=none;top=0;left=0;bottom=0;right=0;overflow=hidden;" vertex="1" parent="EpjN3oS9ddipyR-FSRtz-2">
          <mxGeometry x="157" width="78" height="40" as="geometry" />
        </mxCell>
        <mxCell id="EpjN3oS9ddipyR-FSRtz-19" value="contact&lt;br&gt;number" style="shape=partialRectangle;html=1;whiteSpace=wrap;connectable=0;fillColor=none;top=0;left=0;bottom=0;right=0;overflow=hidden;" vertex="1" parent="EpjN3oS9ddipyR-FSRtz-2">
          <mxGeometry x="235" width="78" height="40" as="geometry" />
        </mxCell>
        <mxCell id="EpjN3oS9ddipyR-FSRtz-20" value="address(superb,street)" style="shape=partialRectangle;html=1;whiteSpace=wrap;connectable=0;fillColor=none;top=0;left=0;bottom=0;right=0;overflow=hidden;" vertex="1" parent="EpjN3oS9ddipyR-FSRtz-2">
          <mxGeometry x="313" width="131" height="40" as="geometry" />
        </mxCell>
        <mxCell id="EpjN3oS9ddipyR-FSRtz-23" value="" style="shape=table;html=1;whiteSpace=wrap;startSize=0;container=1;collapsible=0;childLayout=tableLayout;" vertex="1" parent="1">
          <mxGeometry x="195" y="220" width="450" height="40" as="geometry" />
        </mxCell>
        <mxCell id="EpjN3oS9ddipyR-FSRtz-24" value="" style="shape=partialRectangle;html=1;whiteSpace=wrap;collapsible=0;dropTarget=0;pointerEvents=0;fillColor=none;top=0;left=0;bottom=0;right=0;points=[[0,0.5],[1,0.5]];portConstraint=eastwest;" vertex="1" parent="EpjN3oS9ddipyR-FSRtz-23">
          <mxGeometry width="450" height="40" as="geometry" />
        </mxCell>
        <mxCell id="EpjN3oS9ddipyR-FSRtz-25" value="&lt;u&gt;ID&lt;/u&gt;" style="shape=partialRectangle;html=1;whiteSpace=wrap;connectable=0;fillColor=none;top=0;left=0;bottom=0;right=0;overflow=hidden;" vertex="1" parent="EpjN3oS9ddipyR-FSRtz-24">
          <mxGeometry width="74" height="40" as="geometry" />
        </mxCell>
        <mxCell id="EpjN3oS9ddipyR-FSRtz-26" value="dealership ID" style="shape=partialRectangle;html=1;whiteSpace=wrap;connectable=0;fillColor=none;top=0;left=0;bottom=0;right=0;overflow=hidden;" vertex="1" parent="EpjN3oS9ddipyR-FSRtz-24">
          <mxGeometry x="74" width="76" height="40" as="geometry" />
        </mxCell>
        <mxCell id="EpjN3oS9ddipyR-FSRtz-27" value="email" style="shape=partialRectangle;html=1;whiteSpace=wrap;connectable=0;fillColor=none;top=0;left=0;bottom=0;right=0;overflow=hidden;" vertex="1" parent="EpjN3oS9ddipyR-FSRtz-24">
          <mxGeometry x="150" width="72" height="40" as="geometry" />
        </mxCell>
        <mxCell id="EpjN3oS9ddipyR-FSRtz-28" value="working time" style="shape=partialRectangle;html=1;whiteSpace=wrap;connectable=0;fillColor=none;top=0;left=0;bottom=0;right=0;overflow=hidden;" vertex="1" parent="EpjN3oS9ddipyR-FSRtz-24">
          <mxGeometry x="222" width="88" height="40" as="geometry" />
        </mxCell>
        <mxCell id="EpjN3oS9ddipyR-FSRtz-29" value="name" style="shape=partialRectangle;html=1;whiteSpace=wrap;connectable=0;fillColor=none;top=0;left=0;bottom=0;right=0;overflow=hidden;" vertex="1" parent="EpjN3oS9ddipyR-FSRtz-24">
          <mxGeometry x="310" width="70" height="40" as="geometry" />
        </mxCell>
        <mxCell id="EpjN3oS9ddipyR-FSRtz-30" value="phone number" style="shape=partialRectangle;html=1;whiteSpace=wrap;connectable=0;fillColor=none;top=0;left=0;bottom=0;right=0;overflow=hidden;" vertex="1" parent="EpjN3oS9ddipyR-FSRtz-24">
          <mxGeometry x="380" width="70" height="40" as="geometry" />
        </mxCell>
        <mxCell id="EpjN3oS9ddipyR-FSRtz-31" value="" style="shape=table;html=1;whiteSpace=wrap;startSize=0;container=1;collapsible=0;childLayout=tableLayout;" vertex="1" parent="1">
          <mxGeometry x="195" y="330" width="660" height="40" as="geometry" />
        </mxCell>
        <mxCell id="EpjN3oS9ddipyR-FSRtz-32" value="" style="shape=partialRectangle;html=1;whiteSpace=wrap;collapsible=0;dropTarget=0;pointerEvents=0;fillColor=none;top=0;left=0;bottom=0;right=0;points=[[0,0.5],[1,0.5]];portConstraint=eastwest;" vertex="1" parent="EpjN3oS9ddipyR-FSRtz-31">
          <mxGeometry width="660" height="40" as="geometry" />
        </mxCell>
        <mxCell id="EpjN3oS9ddipyR-FSRtz-33" value="&lt;u&gt;ID&lt;/u&gt;" style="shape=partialRectangle;html=1;whiteSpace=wrap;connectable=0;fillColor=none;top=0;left=0;bottom=0;right=0;overflow=hidden;" vertex="1" parent="EpjN3oS9ddipyR-FSRtz-32">
          <mxGeometry width="79" height="40" as="geometry" />
        </mxCell>
        <mxCell id="EpjN3oS9ddipyR-FSRtz-34" value="make" style="shape=partialRectangle;html=1;whiteSpace=wrap;connectable=0;fillColor=none;top=0;left=0;bottom=0;right=0;overflow=hidden;" vertex="1" parent="EpjN3oS9ddipyR-FSRtz-32">
          <mxGeometry x="79" width="81" height="40" as="geometry" />
        </mxCell>
        <mxCell id="EpjN3oS9ddipyR-FSRtz-35" value="model" style="shape=partialRectangle;html=1;whiteSpace=wrap;connectable=0;fillColor=none;top=0;left=0;bottom=0;right=0;overflow=hidden;" vertex="1" parent="EpjN3oS9ddipyR-FSRtz-32">
          <mxGeometry x="160" width="77" height="40" as="geometry" />
        </mxCell>
        <mxCell id="EpjN3oS9ddipyR-FSRtz-36" value="build date" style="shape=partialRectangle;html=1;whiteSpace=wrap;connectable=0;fillColor=none;top=0;left=0;bottom=0;right=0;overflow=hidden;" vertex="1" parent="EpjN3oS9ddipyR-FSRtz-32">
          <mxGeometry x="237" width="83" height="40" as="geometry" />
        </mxCell>
        <mxCell id="EpjN3oS9ddipyR-FSRtz-37" value="description" style="shape=partialRectangle;html=1;whiteSpace=wrap;connectable=0;fillColor=none;top=0;left=0;bottom=0;right=0;overflow=hidden;" vertex="1" parent="EpjN3oS9ddipyR-FSRtz-32">
          <mxGeometry x="320" width="85" height="40" as="geometry" />
        </mxCell>
        <mxCell id="EpjN3oS9ddipyR-FSRtz-38" value="employee ID" style="shape=partialRectangle;html=1;whiteSpace=wrap;connectable=0;fillColor=none;top=0;left=0;bottom=0;right=0;overflow=hidden;" vertex="1" parent="EpjN3oS9ddipyR-FSRtz-32">
          <mxGeometry x="405" width="75" height="40" as="geometry" />
        </mxCell>
        <mxCell id="EpjN3oS9ddipyR-FSRtz-40" value="dealership ID" style="shape=partialRectangle;html=1;whiteSpace=wrap;connectable=0;fillColor=none;top=0;left=0;bottom=0;right=0;overflow=hidden;" vertex="1" parent="EpjN3oS9ddipyR-FSRtz-32">
          <mxGeometry x="480" width="90" height="40" as="geometry" />
        </mxCell>
        <mxCell id="EpjN3oS9ddipyR-FSRtz-39" value="consumer ID" style="shape=partialRectangle;html=1;whiteSpace=wrap;connectable=0;fillColor=none;top=0;left=0;bottom=0;right=0;overflow=hidden;" vertex="1" parent="EpjN3oS9ddipyR-FSRtz-32">
          <mxGeometry x="570" width="90" height="40" as="geometry" />
        </mxCell>
        <mxCell id="EpjN3oS9ddipyR-FSRtz-41" value="" style="shape=table;html=1;whiteSpace=wrap;startSize=0;container=1;collapsible=0;childLayout=tableLayout;" vertex="1" parent="1">
          <mxGeometry x="195" y="580" width="310" height="40" as="geometry" />
        </mxCell>
        <mxCell id="EpjN3oS9ddipyR-FSRtz-42" value="" style="shape=partialRectangle;html=1;whiteSpace=wrap;collapsible=0;dropTarget=0;pointerEvents=0;fillColor=none;top=0;left=0;bottom=0;right=0;points=[[0,0.5],[1,0.5]];portConstraint=eastwest;" vertex="1" parent="EpjN3oS9ddipyR-FSRtz-41">
          <mxGeometry width="310" height="40" as="geometry" />
        </mxCell>
        <mxCell id="EpjN3oS9ddipyR-FSRtz-43" value="&lt;u&gt;ID&lt;/u&gt;" style="shape=partialRectangle;html=1;whiteSpace=wrap;connectable=0;fillColor=none;top=0;left=0;bottom=0;right=0;overflow=hidden;" vertex="1" parent="EpjN3oS9ddipyR-FSRtz-42">
          <mxGeometry width="74" height="40" as="geometry" />
        </mxCell>
        <mxCell id="EpjN3oS9ddipyR-FSRtz-44" value="name" style="shape=partialRectangle;html=1;whiteSpace=wrap;connectable=0;fillColor=none;top=0;left=0;bottom=0;right=0;overflow=hidden;" vertex="1" parent="EpjN3oS9ddipyR-FSRtz-42">
          <mxGeometry x="74" width="76" height="40" as="geometry" />
        </mxCell>
        <mxCell id="EpjN3oS9ddipyR-FSRtz-45" value="email" style="shape=partialRectangle;html=1;whiteSpace=wrap;connectable=0;fillColor=none;top=0;left=0;bottom=0;right=0;overflow=hidden;" vertex="1" parent="EpjN3oS9ddipyR-FSRtz-42">
          <mxGeometry x="150" width="72" height="40" as="geometry" />
        </mxCell>
        <mxCell id="EpjN3oS9ddipyR-FSRtz-46" value="phone number" style="shape=partialRectangle;html=1;whiteSpace=wrap;connectable=0;fillColor=none;top=0;left=0;bottom=0;right=0;overflow=hidden;" vertex="1" parent="EpjN3oS9ddipyR-FSRtz-42">
          <mxGeometry x="222" width="88" height="40" as="geometry" />
        </mxCell>
        <mxCell id="EpjN3oS9ddipyR-FSRtz-49" value="" style="shape=table;html=1;whiteSpace=wrap;startSize=0;container=1;collapsible=0;childLayout=tableLayout;" vertex="1" parent="1">
          <mxGeometry x="195" y="450" width="400" height="40" as="geometry" />
        </mxCell>
        <mxCell id="EpjN3oS9ddipyR-FSRtz-50" value="" style="shape=partialRectangle;html=1;whiteSpace=wrap;collapsible=0;dropTarget=0;pointerEvents=0;fillColor=none;top=0;left=0;bottom=0;right=0;points=[[0,0.5],[1,0.5]];portConstraint=eastwest;" vertex="1" parent="EpjN3oS9ddipyR-FSRtz-49">
          <mxGeometry width="400" height="40" as="geometry" />
        </mxCell>
        <mxCell id="EpjN3oS9ddipyR-FSRtz-51" value="&lt;u&gt;ID&lt;/u&gt;" style="shape=partialRectangle;html=1;whiteSpace=wrap;connectable=0;fillColor=none;top=0;left=0;bottom=0;right=0;overflow=hidden;" vertex="1" parent="EpjN3oS9ddipyR-FSRtz-50">
          <mxGeometry width="74" height="40" as="geometry" />
        </mxCell>
        <mxCell id="EpjN3oS9ddipyR-FSRtz-52" value="vehicle ID" style="shape=partialRectangle;html=1;whiteSpace=wrap;connectable=0;fillColor=none;top=0;left=0;bottom=0;right=0;overflow=hidden;" vertex="1" parent="EpjN3oS9ddipyR-FSRtz-50">
          <mxGeometry x="74" width="76" height="40" as="geometry" />
        </mxCell>
        <mxCell id="EpjN3oS9ddipyR-FSRtz-53" value="contact number" style="shape=partialRectangle;html=1;whiteSpace=wrap;connectable=0;fillColor=none;top=0;left=0;bottom=0;right=0;overflow=hidden;" vertex="1" parent="EpjN3oS9ddipyR-FSRtz-50">
          <mxGeometry x="150" width="90" height="40" as="geometry" />
        </mxCell>
        <mxCell id="EpjN3oS9ddipyR-FSRtz-54" value="contact person" style="shape=partialRectangle;html=1;whiteSpace=wrap;connectable=0;fillColor=none;top=0;left=0;bottom=0;right=0;overflow=hidden;" vertex="1" parent="EpjN3oS9ddipyR-FSRtz-50">
          <mxGeometry x="240" width="90" height="40" as="geometry" />
        </mxCell>
        <mxCell id="EpjN3oS9ddipyR-FSRtz-55" value="name" style="shape=partialRectangle;html=1;whiteSpace=wrap;connectable=0;fillColor=none;top=0;left=0;bottom=0;right=0;overflow=hidden;" vertex="1" parent="EpjN3oS9ddipyR-FSRtz-50">
          <mxGeometry x="330" width="70" height="40" as="geometry" />
        </mxCell>
        <mxCell id="EpjN3oS9ddipyR-FSRtz-58" value="employee" style="text;html=1;strokeColor=none;fillColor=none;align=center;verticalAlign=middle;whiteSpace=wrap;rounded=0;" vertex="1" parent="1">
          <mxGeometry x="195" y="200" width="80" height="20" as="geometry" />
        </mxCell>
        <mxCell id="EpjN3oS9ddipyR-FSRtz-59" value="dealership" style="text;html=1;strokeColor=none;fillColor=none;align=center;verticalAlign=middle;whiteSpace=wrap;rounded=0;" vertex="1" parent="1">
          <mxGeometry x="195" y="80" width="90" height="20" as="geometry" />
        </mxCell>
        <mxCell id="EpjN3oS9ddipyR-FSRtz-60" value="vehicle" style="text;html=1;strokeColor=none;fillColor=none;align=center;verticalAlign=middle;whiteSpace=wrap;rounded=0;" vertex="1" parent="1">
          <mxGeometry x="195" y="310" width="90" height="20" as="geometry" />
        </mxCell>
        <mxCell id="EpjN3oS9ddipyR-FSRtz-61" value="showroom" style="text;html=1;strokeColor=none;fillColor=none;align=center;verticalAlign=middle;whiteSpace=wrap;rounded=0;" vertex="1" parent="1">
          <mxGeometry x="195" y="430" width="90" height="20" as="geometry" />
        </mxCell>
        <mxCell id="EpjN3oS9ddipyR-FSRtz-62" value="consumer" style="text;html=1;strokeColor=none;fillColor=none;align=center;verticalAlign=middle;whiteSpace=wrap;rounded=0;" vertex="1" parent="1">
          <mxGeometry x="195" y="560" width="90" height="20" as="geometry" />
        </mxCell>
        <mxCell id="EpjN3oS9ddipyR-FSRtz-64" value="" style="shape=table;html=1;whiteSpace=wrap;startSize=0;container=1;collapsible=0;childLayout=tableLayout;" vertex="1" parent="1">
          <mxGeometry x="195" y="690" width="310" height="40" as="geometry" />
        </mxCell>
        <mxCell id="EpjN3oS9ddipyR-FSRtz-65" value="" style="shape=partialRectangle;html=1;whiteSpace=wrap;collapsible=0;dropTarget=0;pointerEvents=0;fillColor=none;top=0;left=0;bottom=0;right=0;points=[[0,0.5],[1,0.5]];portConstraint=eastwest;" vertex="1" parent="EpjN3oS9ddipyR-FSRtz-64">
          <mxGeometry width="310" height="40" as="geometry" />
        </mxCell>
        <mxCell id="EpjN3oS9ddipyR-FSRtz-66" value="&lt;u&gt;consumer ID&lt;/u&gt;" style="shape=partialRectangle;html=1;whiteSpace=wrap;connectable=0;fillColor=none;top=0;left=0;bottom=0;right=0;overflow=hidden;" vertex="1" parent="EpjN3oS9ddipyR-FSRtz-65">
          <mxGeometry width="85" height="40" as="geometry" />
        </mxCell>
        <mxCell id="EpjN3oS9ddipyR-FSRtz-67" value="&lt;u&gt;vehicle ID&lt;/u&gt;" style="shape=partialRectangle;html=1;whiteSpace=wrap;connectable=0;fillColor=none;top=0;left=0;bottom=0;right=0;overflow=hidden;" vertex="1" parent="EpjN3oS9ddipyR-FSRtz-65">
          <mxGeometry x="85" width="90" height="40" as="geometry" />
        </mxCell>
        <mxCell id="EpjN3oS9ddipyR-FSRtz-68" value="date" style="shape=partialRectangle;html=1;whiteSpace=wrap;connectable=0;fillColor=none;top=0;left=0;bottom=0;right=0;overflow=hidden;" vertex="1" parent="EpjN3oS9ddipyR-FSRtz-65">
          <mxGeometry x="175" width="47" height="40" as="geometry" />
        </mxCell>
        <mxCell id="EpjN3oS9ddipyR-FSRtz-69" value="sales price" style="shape=partialRectangle;html=1;whiteSpace=wrap;connectable=0;fillColor=none;top=0;left=0;bottom=0;right=0;overflow=hidden;" vertex="1" parent="EpjN3oS9ddipyR-FSRtz-65">
          <mxGeometry x="222" width="88" height="40" as="geometry" />
        </mxCell>
        <mxCell id="EpjN3oS9ddipyR-FSRtz-70" value="purchase" style="text;html=1;strokeColor=none;fillColor=none;align=center;verticalAlign=middle;whiteSpace=wrap;rounded=0;" vertex="1" parent="1">
          <mxGeometry x="195" y="670" width="90" height="20" as="geometry" />
        </mxCell>
      </root>
    </mxGraphModel>
  </diagram>
</mxfile>
